PathFileType	4	(X/Y/Z)	/Users/itak/Documents/Research/Walk-IL/dataset/trc/00052_00006.trc
DataRate	CameraRate	NumFrames	NumMarkers	Units	OrigDataRate	OrigDataStartFrame	OrigNumFrames
100.000000	100.000000	4	53	mm	100.000000	0	530
Frame#	Time	RPSI			LPSI			L3			STRN			T10			C7			CLAV			RBAK			LBAK			LSHO			LUPA			LAEL			LAOL			LWTS			LWPS			LFRA			LIFD			LHPS			LHTS			RSHO			RUPA			RAEL			RAOL			RWTS			RWPS			RFRA			RIFD			RHTS			RHPS			RBHD			LFHD			RFHD			LBHD			LHIP			RHIP			RASI			LASI			LKNE			LTHI			LANK			LTIP			LTOE			LMT1			LMT5			LHEE			RKNE			RTHI			RANK			RTIP			RTOE			RMT1			RMT5			RHEE			
		X1	Y1	Z1	X2	Y2	Z2	X3	Y3	Z3	X4	Y4	Z4	X5	Y5	Z5	X6	Y6	Z6	X7	Y7	Z7	X8	Y8	Z8	X9	Y9	Z9	X10	Y10	Z10	X11	Y11	Z11	X12	Y12	Z12	X13	Y13	Z13	X14	Y14	Z14	X15	Y15	Z15	X16	Y16	Z16	X17	Y17	Z17	X18	Y18	Z18	X19	Y19	Z19	X20	Y20	Z20	X21	Y21	Z21	X22	Y22	Z22	X23	Y23	Z23	X24	Y24	Z24	X25	Y25	Z25	X26	Y26	Z26	X27	Y27	Z27	X28	Y28	Z28	X29	Y29	Z29	X30	Y30	Z30	X31	Y31	Z31	X32	Y32	Z32	X33	Y33	Z33	X34	Y34	Z34	X35	Y35	Z35	X36	Y36	Z36	X37	Y37	Z37	X38	Y38	Z38	X39	Y39	Z39	X40	Y40	Z40	X41	Y41	Z41	X42	Y42	Z42	X43	Y43	Z43	X44	Y44	Z44	X45	Y45	Z45	X46	Y46	Z46	X47	Y47	Z47	X48	Y48	Z48	X49	Y49	Z49	X50	Y50	Z50	X51	Y51	Z51	X52	Y52	Z52	X53	Y53	Z53	

1	0	926.6764526367188	1028.27294921875	-191.2316284179688	904.93603515625	1021.774841308594	-366.8821411132812	918.1822509765625	1076.23095703125	-286.9659118652344	1160.765380859375	1272.898681640625	-297.5365905761719	895.7443237304688	1208.661010742188	-294.19091796875	950.520751953125	1476.642944335938	-301.7926025390625	1130.018798828125	1386.504272460938	-300.3985290527344	888.8150024414062	1338.481201171875	-223.8599395751953	927.76025390625	1437.763061523438	-402.0132141113281	1031.711791992188	1440.853271484375	-475.1737365722656	1013.177734375	1313.40625	-552.0465698242188	1031.920776367188	1099.600952148438	-572.543212890625	973.3047485351562	1083.937377929688	-484.6038513183594	1114.257080078125	852.8253784179688	-525.14697265625	1053.920654296875	849.2771606445312	-583.830810546875	1047.755981445312	990.8092041015625	-585.3460693359375	1117.152465820312	663.4602661132812	-519.8936157226562	1081.702880859375	765.9437255859375	-585.0282592773438	1130.675537109375	769.424560546875	-533.322021484375	1018.314819335938	1440.731323242188	-124.5173950195312	1006.609802246094	1372.6171875	-60.46234893798828	979.1224975585938	1105.80322265625	-35.39505386352539	999.7133178710938	1083.053100585938	-129.7272491455078	1109.944946289062	847.6998291015625	-60.03677368164062	1039.658813476562	840.150634765625	-9.388257026672363	992.2421264648438	1028.815185546875	-26.27618408203125	1105.826782226562	658.1824340820312	-65.03755187988281	1126.33349609375	743.8624877929688	-54.77849197387695	1070.055297851562	747.43359375	-2.565809011459351	990.5891723632812	1653.7197265625	-368.7707824707031	1151.2392578125	1689.027587890625	-228.1978607177734	1164.098754882812	1694.390258789062	-352.9847106933594	985.1178588867188	1640.67236328125	-231.9140167236328	1004.564086914062	953.6597290039062	-459.9114074707031	994.1474609375	954.3338623046875	-118.3463363647461	1116.898071289062	965.8701171875	-146.556396484375	1117.699096679688	958.9124755859375	-414.8969116210938	1043.425537109375	487.8995666503906	-419.1786804199219	1022.568420410156	630.0053100585938	-456.1499633789062	950.1416625976562	38.3349609375	-439.6215209960938	987.4550170898438	255.8486938476562	-444.2692260742188	1156.11572265625	31.64166450500488	-431.7003784179688	1106.078979492188	32.92824935913086	-378.4596252441406	1053.527099609375	28.21138381958008	-477.4144592285156	897.6085205078125	35.89904403686523	-364.7699279785156	1039.885131835938	506.322998046875	-139.0777893066406	1065.95751953125	777.6126708984375	-110.7666549682617	941.3184204101562	36.09431838989258	-138.9164733886719	1011.8359375	387.627197265625	-132.2525787353516	1158.725219726562	28.91046905517578	-167.0349884033203	1098.645141601562	34.13244247436523	-209.5871734619141	1065.234985351562	36.54310607910156	-118.8092498779297	895.2882080078125	36.91946411132812	-196.3426666259766	
2	0.01	926.9822387695312	1028.234008789062	-191.1939086914062	904.83935546875	1021.776184082031	-366.92138671875	918.1056518554688	1076.238159179688	-287.0005798339844	1160.690795898438	1272.888916015625	-297.49853515625	895.6032104492188	1208.66845703125	-294.2230834960938	950.459228515625	1476.634887695312	-301.7809753417969	1129.97998046875	1386.521606445312	-300.402587890625	888.7787475585938	1338.475952148438	-223.8566131591797	927.7219848632812	1437.778076171875	-402.0380554199219	1031.659301757812	1440.895263671875	-475.1463623046875	1013.298278808594	1313.435791015625	-552.0508422851562	1032.42431640625	1099.682006835938	-572.6426391601562	973.794189453125	1083.873901367188	-484.67041015625	1115.739868164062	853.30712890625	-525.1787719726562	1055.3173828125	849.3955688476562	-583.71875	1048.598876953125	990.915283203125	-585.3772583007812	1119.485717773438	663.9580688476562	-519.6782836914062	1083.442260742188	766.1792602539062	-584.8582763671875	1132.47509765625	769.852294921875	-533.2012329101562	1018.2607421875	1440.73291015625	-124.5304336547852	1006.602783203125	1372.590087890625	-60.48122406005859	979.4884643554688	1105.710083007812	-35.39934158325195	999.9938354492188	1083.05322265625	-129.7783050537109	1111.1689453125	848.0426635742188	-60.57267379760742	1040.997192382812	840.109619140625	-9.8807373046875	992.8180541992188	1028.628051757812	-26.35536193847656	1107.886108398438	658.5165405273438	-65.89397430419922	1127.998168945312	744.2892456054688	-55.50723266601562	1071.671875	747.50830078125	-3.311556577682495	990.551513671875	1653.745849609375	-368.7498474121094	1151.213256835938	1688.997802734375	-228.1759948730469	1164.082153320312	1694.350341796875	-352.9635009765625	985.1183471679688	1640.714111328125	-231.8971099853516	1004.70703125	953.5806884765625	-459.99462890625	994.0896606445312	954.3257446289062	-118.369384765625	1116.837280273438	965.8690185546875	-146.5208740234375	1117.679809570312	958.9354248046875	-414.9251708984375	1043.428100585938	487.9023742675781	-419.1907958984375	1022.237670898438	630.0430908203125	-456.2008666992188	950.144287109375	38.33227157592773	-439.6221313476562	987.4639892578125	255.8505096435547	-444.2673645019531	1156.11376953125	31.63517379760742	-431.7087707519531	1106.06689453125	32.91372299194336	-378.4587097167969	1053.5283203125	28.21354484558105	-477.4054565429688	897.6083984375	35.89929962158203	-364.7701110839844	1039.868286132812	506.3296508789062	-139.0681457519531	1065.760620117188	777.41357421875	-110.6052017211914	941.3056640625	36.09515380859375	-138.9166107177734	1011.829528808594	387.6231689453125	-132.2572631835938	1158.722900390625	28.91213417053223	-167.0402221679688	1098.646118164062	34.13406753540039	-209.5906219482422	1065.244262695312	36.55529022216797	-118.8082046508789	895.2874755859375	36.91930389404297	-196.3470306396484	
3	0.02	927.38916015625	1028.174926757812	-191.1451263427734	904.7206420898438	1021.77734375	-366.9691162109375	918.0230102539062	1076.246704101562	-287.0426635742188	1160.595458984375	1272.879028320312	-297.4515075683594	895.4415893554688	1208.682495117188	-294.262451171875	950.3798828125	1476.628051757812	-301.7671813964844	1129.927978515625	1386.543579101562	-300.4064025878906	888.7305297851562	1338.469116210938	-223.8519439697266	927.67138671875	1437.794799804688	-402.0675659179688	1031.597045898438	1440.954345703125	-475.1177673339844	1013.452026367188	1313.471923828125	-552.0523071289062	1033.07275390625	1099.777954101562	-572.7615356445312	974.42138671875	1083.792114257812	-484.7574462890625	1117.611328125	853.9163818359375	-525.1610107421875	1057.096557617188	849.5430908203125	-583.54345703125	1049.679321289062	991.0425415039062	-585.39697265625	1122.432006835938	664.5941772460938	-519.3392944335938	1085.665649414062	766.4766235351562	-584.5961303710938	1134.761352539062	770.4318237304688	-533.0018310546875	1018.185119628906	1440.735595703125	-124.5471496582031	1006.592651367188	1372.556762695312	-60.50237274169922	979.9860229492188	1105.589477539062	-35.38778305053711	1000.348571777344	1083.054565429688	-129.8417510986328	1112.735717773438	848.49267578125	-61.26210784912109	1042.692504882812	840.0595092773438	-10.52695655822754	993.5633544921875	1028.392578125	-26.45306205749512	1110.51318359375	658.9571533203125	-67.01313018798828	1130.1376953125	744.843994140625	-56.44953155517578	1073.76318359375	747.616943359375	-4.266140460968018	990.5069580078125	1653.78173828125	-368.7308959960938	1151.177124023438	1688.959716796875	-228.1492462158203	1164.059936523438	1694.303588867188	-352.9420776367188	985.1091918945312	1640.766967773438	-231.8814239501953	1004.832763671875	953.4778442382812	-460.120849609375	994.0136108398438	954.3133544921875	-118.3982849121094	1116.755493164062	965.8680419921875	-146.4877166748047	1117.657470703125	958.9627685546875	-414.962158203125	1043.426879882812	487.9187622070312	-419.2156066894531	1021.775512695312	630.1027221679688	-456.2757263183594	950.1475830078125	38.32797241210938	-439.6231079101562	987.4722900390625	255.8523101806641	-444.2660522460938	1156.11279296875	31.62917518615723	-431.7159423828125	1106.05712890625	32.89939880371094	-378.4548950195312	1053.529663085938	28.21623802185059	-477.39404296875	897.6084594726562	35.90026473999023	-364.7702331542969	1039.844970703125	506.3358459472656	-139.0621948242188	1065.56640625	777.201171875	-110.4287643432617	941.292724609375	36.09588241577148	-138.9167175292969	1011.822692871094	387.6228942871094	-132.2661590576172	1158.720581054688	28.91422271728516	-167.0465850830078	1098.646606445312	34.13687896728516	-209.5963592529297	1065.249633789062	36.56370544433594	-118.8076553344727	895.2854614257812	36.91972732543945	-196.3538665771484	
4	0.03	927.9077758789062	1028.091918945312	-191.0864562988281	904.5875244140625	1021.777526855469	-367.023193359375	917.9449462890625	1076.255615234375	-287.0899658203125	1160.482666015625	1272.87060546875	-297.3980102539062	895.2626953125	1208.703735351562	-294.308349609375	950.2844848632812	1476.623657226562	-301.7518005371094	1129.86279296875	1386.568481445312	-300.4080505371094	888.67138671875	1338.460815429688	-223.8459014892578	927.6091918945312	1437.811279296875	-402.1000366210938	1031.529418945312	1441.029907226562	-475.09130859375	1013.634643554688	1313.512817382812	-552.0494995117188	1033.844604492188	1099.882446289062	-572.8904418945312	975.17041015625	1083.692993164062	-484.8637084960938	1119.797607421875	854.6295166015625	-525.0657958984375	1059.197387695312	849.7139282226562	-583.294189453125	1050.962036132812	991.18408203125	-585.3948974609375	1125.888793945312	665.3533325195312	-518.8602294921875	1088.299194335938	766.8251342773438	-584.22802734375	1137.453002929688	771.1581420898438	-532.707763671875	1018.086181640625	1440.739868164062	-124.5682067871094	1006.578796386719	1372.519165039062	-60.52393341064453	980.6128540039062	1105.4443359375	-35.35295486450195	1000.765808105469	1083.05712890625	-129.9132843017578	1114.593994140625	849.0407104492188	-62.08646011352539	1044.683471679688	840.0053100585938	-11.31364250183105	994.4445190429688	1028.118041992188	-26.57134246826172	1113.622802734375	659.4981689453125	-68.3704833984375	1132.680541992188	745.5138549804688	-57.58376693725586	1076.278442382812	747.7623291015625	-5.396302700042725	990.4580078125	1653.826538085938	-368.7173156738281	1151.130981445312	1688.914794921875	-228.1190643310547	1164.031860351562	1694.253295898438	-352.9235534667969	985.0875244140625	1640.829833984375	-231.8693389892578	1004.915466308594	953.3582763671875	-460.2883911132812	993.919921875	954.2965698242188	-118.4320602416992	1116.652465820312	965.8659057617188	-146.4635467529297	1117.632934570312	958.9921875	-415.0062866210938	1043.41748046875	487.9544982910156	-419.2568969726562	1021.212890625	630.1848754882812	-456.3724365234375	950.1510620117188	38.32212829589844	-439.6243591308594	987.4784545898438	255.8539886474609	-444.265869140625	1156.112548828125	31.62304878234863	-431.7214965820312	1106.050903320312	32.88638687133789	-378.447998046875	1053.531616210938	28.21920394897461	-477.3811340332031	897.6089477539062	35.90210723876953	-364.770263671875	1039.815551757812	506.3404235839844	-139.0623321533203	1065.40966796875	777.0027465820312	-110.258186340332	941.281494140625	36.09639358520508	-138.9168243408203	1011.817199707031	387.6277770996094	-132.2793731689453	1158.718505859375	28.91642761230469	-167.0534057617188	1098.64599609375	34.14075088500977	-209.6043701171875	1065.25	36.56726455688477	-118.8081283569336	895.2818603515625	36.92081451416016	-196.36328125	
